<?xml version="1.0" encoding="utf-8"?>
<!-- Generator: Adobe Illustrator 16.0.0, SVG Export Plug-In . SVG Version: 6.00 Build 0)  -->
<!DOCTYPE svg PUBLIC "-//W3C//DTD SVG 1.1//EN" "http://www.w3.org/Graphics/SVG/1.1/DTD/svg11.dtd">
<svg version="1.1" id="Calque_1" xmlns="http://www.w3.org/2000/svg" xmlns:xlink="http://www.w3.org/1999/xlink" x="0px" y="0px"
	 width="1365px" height="766px" viewBox="0 0 1365 766" enable-background="new 0 0 1365 766" xml:space="preserve">
<rect y="0" fill-rule="evenodd" clip-rule="evenodd" fill="#231F20" width="1365" height="766"/>
<g>
	<linearGradient id="SVGID_1_" gradientUnits="userSpaceOnUse" x1="501.4404" y1="269.5098" x2="827.1963" y2="269.5098">
		<stop  offset="0.0269" style="stop-color:#000000"/>
		<stop  offset="1" style="stop-color:#03848B"/>
	</linearGradient>
	<path fill-rule="evenodd" clip-rule="evenodd" fill="url(#SVGID_1_)" d="M825.028,370.28
		c-17.833-29.248-35.416-58.641-52.972-88.051c-19.343-32.395-38.527-64.883-57.853-97.29
		c-10.016-16.795-20.514-33.313-30.099-50.348c-1.771-3.149-3.671-5.087-6.038-6.143h-36.819c-1.618,0.841-2.902,2.247-4.096,4.408
		c-22.668,40.86-45.582,81.577-68.402,122.349c-21.71,38.787-43.304,77.642-65.192,116.33c-1.66,2.937-2.371,5.489-2.037,8.083
		l14.848,28.564c1.349,1.317,2.961,2.011,4.91,2.326h141.968c0-0.017,0-0.034,0-0.052c46.491,0,92.984-0.075,139.471,0.114
		c3.696,0.013,6.234-0.804,8.218-3.061l16.262-31.069C827.11,374.482,826.387,372.502,825.028,370.28z M521.278,355.836
		c12.587-22.293,25.15-44.591,37.378-67.09c15.479-28.475,31.775-56.509,47.646-84.776c11.926-21.247,23.824-42.509,35.503-63.888
		c2.01-3.671,4.219-5.13,8.433-4.882c6.707,0.393,13.456,0.103,21.195,0.103c-10.279,17.993-20.049,35.101-29.834,52.197
		c-29.828,52.096-59.676,104.183-89.481,156.294c-3.72,6.504-2.063,9.022,5.928,9.022c57.397-0.021,114.801-0.021,172.198-0.247
		c4.843-0.021,7.829,1.05,9.928,5.661c2.447,5.366,5.702,10.371,8.923,16.104c-79.178,0-157.749,0-237.521,0
		C514.985,367.799,517.96,361.72,521.278,355.836z M593.884,344.789c22.649-39.419,44.993-78.302,67.937-118.229
		c23.829,40.023,46.946,78.849,70.398,118.229C685.979,344.789,640.5,344.789,593.884,344.789z M795.022,402.92
		c-89.146-0.014-178.284-0.109-267.425-0.044c-3.991,0.003-6.172-1.201-7.847-4.741c-2.408-5.103-5.317-9.971-8.497-15.823
		c3.378,0,5.649,0,7.92,0c76.987,0.01,153.974,0.018,230.96,0.023c10.513,0,11.339-1.345,6.233-10.367
		c-28.063-49.628-57.931-98.197-86.836-147.333c-2.309-3.924-2.93-6.822-0.313-10.843c3.141-4.813,4.979-10.456,9.191-15.622
		c40.724,68.232,81.131,135.939,121.521,203.618C798.392,403.702,796.56,402.92,795.022,402.92z M817.5,381.484
		c-3.637,5.482-6.703,11.353-10.045,17.106c-2.655-0.934-3.167-3.452-4.288-5.335c-19.37-32.535-38.658-65.113-57.973-97.681
		c-20.451-34.486-40.909-68.969-61.366-103.456c-4.622-7.79-6.708-7.882-11.186-0.094c-27.84,48.461-55.705,96.906-83.292,145.508
		c-2.755,4.854-5.506,7.802-10.83,7.688v0.147h-14.794v-0.058h-3.417v-0.398h0.233c39.242-68.96,78.095-137.238,117.295-206.122
		c23.518,39.26,46.477,77.564,69.408,115.886c23.367,39.049,46.645,78.153,70.146,117.116
		C819.56,375.388,819.847,377.947,817.5,381.484z"/>
	<g>
		<path fill="#FFFFFF" d="M515.331,489.969h0.164l-0.164,0.164V489.969z M572.678,432.54l-22.201,28.755l-1.229,1.557v27.035
			h-10.241v-26.871l-1.393-1.721l-22.201-28.755h12.944l15.729,20.398l15.729-20.398H572.678z M572.596,489.969h0.082v0.164
			L572.596,489.969z"/>
		<path fill="#FFFFFF" d="M620.442,489.969h-11.47l-5.243-10.24l-12.534-24.578l-12.535,24.578l-5.243,10.24h-11.469l5.243-10.24
			l24.004-47.106l24.004,47.106L620.442,489.969z"/>
		<path fill="#FFFFFF" d="M682.708,471.699c0,10.077-8.192,18.27-18.27,18.27h-39.077v-57.347h36.128
			c8.521,0,15.484,6.963,15.484,15.483c0,3.113-0.901,5.98-2.458,8.356C679.431,459.738,682.708,465.31,682.708,471.699z
			 M635.602,453.349h25.97c2.867,0,5.243-2.376,5.243-5.243s-2.376-5.243-5.243-5.243h-25.97V453.349z M664.438,479.646
			c4.424,0,8.029-3.604,8.029-8.029c0-4.424-3.605-8.028-8.029-8.028h-28.837v16.14h28.837V479.646z"/>
		<path fill="#FFFFFF" d="M744.155,461.295c0,15.812-12.862,28.674-28.674,28.674s-28.674-12.862-28.674-28.674
			s12.862-28.673,28.674-28.673S744.155,445.483,744.155,461.295z M733.914,461.295c0-10.158-8.274-18.433-18.433-18.433
			s-18.433,8.274-18.433,18.433c0,10.159,8.274,18.434,18.433,18.434S733.914,471.454,733.914,461.295z"/>
		<path fill="#FFFFFF" d="M807.65,432.703v57.348l-10.24-7.865l-36.866-28.428v36.293h-10.24v-57.184l10.24,7.865l36.866,28.428
			v-36.538L807.65,432.703z"/>
	</g>
	<g>
		<path fill="#FFFFFF" d="M525.638,509.841c1.16,1.161,1.877,2.765,1.877,4.54c0,2.594-1.536,4.847-3.755,5.871
			c-0.58,0.272-1.194,0.443-1.843,0.512c-0.068,0-0.137,0-0.205,0v0.034h-11.435v10.991h-4.267v-23.894h15.053
			c1.774,0,3.379,0.717,4.54,1.877L525.638,509.841z M521.985,516.36c0.785-0.341,1.297-1.126,1.297-1.979
			c0-0.785-0.41-1.331-0.648-1.57c-0.273-0.273-0.785-0.614-1.536-0.614h-10.82v4.403h10.82c0.307,0,0.614-0.068,0.888-0.205V516.36
			z"/>
		<path fill="#FFFFFF" d="M550.182,527.591l2.185,4.267h-4.778l-2.185-4.267l-2.287-4.472l-0.103-0.205
			c-0.751-1.229-2.082-2.048-3.618-2.048h-4.267v10.991h-4.267v-23.894h15.087c1.775,0,3.379,0.717,4.54,1.877
			c1.16,1.161,1.877,2.765,1.877,4.54c0,2.594-1.536,4.847-3.755,5.871c-0.58,0.272-1.194,0.443-1.843,0.512L550.182,527.591z
			 M545.949,516.6c0.308,0,0.614-0.068,0.888-0.205c0.785-0.341,1.297-1.126,1.297-1.979c0-0.785-0.409-1.331-0.648-1.57
			c-0.273-0.273-0.785-0.614-1.536-0.614h-10.82v4.403L545.949,516.6z"/>
		<path fill="#FFFFFF" d="M578.891,519.842c0,6.588-5.359,11.947-11.947,11.947s-11.946-5.359-11.946-11.947
			s5.358-11.946,11.946-11.946S578.891,513.254,578.891,519.842z M574.624,519.842c0-4.232-3.447-7.68-7.681-7.68
			c-4.232,0-7.68,3.447-7.68,7.68c0,4.233,3.447,7.681,7.68,7.681C571.177,527.522,574.624,524.075,574.624,519.842z"/>
		<path fill="#FFFFFF" d="M605.382,507.93v23.894l-4.267-3.277l-15.36-11.844v15.121h-4.267v-23.825l4.267,3.276l15.36,11.845
			v-15.224L605.382,507.93z"/>
		<path fill="#FFFFFF" d="M631.872,519.842c0,6.588-5.359,11.947-11.947,11.947s-11.946-5.359-11.946-11.947
			s5.358-11.946,11.946-11.946S631.872,513.254,631.872,519.842z M627.605,519.842c0-4.232-3.447-7.68-7.681-7.68
			c-4.232,0-7.68,3.447-7.68,7.68c0,4.233,3.447,7.681,7.68,7.681C624.158,527.522,627.605,524.075,627.605,519.842z"/>
		<path fill="#FFFFFF" d="M652.798,514.518v-0.137c0-1.194-0.989-2.185-2.185-2.185h-9.693c-1.195,0-2.185,0.99-2.185,2.185v0.137
			c0,1.194,0.989,2.185,2.185,2.185h8.602c2.219,0,4.198,0.955,5.563,2.457c0.103,0.103,0.171,0.205,0.273,0.308
			c1.059,1.297,1.707,2.97,1.707,4.778c0,4.165-3.38,7.544-7.544,7.544h-7.476c-4.164,0-7.543-3.379-7.543-7.544h4.267
			c0,1.81,1.468,3.277,3.276,3.277h7.476c1.809,0,3.311-1.468,3.311-3.277c0-1.809-1.502-3.276-3.311-3.276h-8.602
			c-1.741,0-3.312-0.683-4.472-1.81c-0.308-0.307-0.58-0.648-0.819-1.023c-0.717-1.024-1.126-2.287-1.126-3.652v-0.137
			c0-3.55,2.867-6.451,6.417-6.451h9.693c3.551,0,6.452,2.901,6.452,6.451v0.137L652.798,514.518z"/>
		<path fill="#FFFFFF" d="M683.215,507.93v4.267h-9.797v19.627h-4.267v-19.627h-9.796v-4.267H683.215z"/>
		<path fill="#FFFFFF" d="M686.665,531.789v-23.894h4.267v23.894H686.665z"/>
		<path fill="#FFFFFF" d="M718.205,519.842c0,2.936-1.059,5.599-2.799,7.681h2.799v4.267h-11.811c-0.034,0-0.068,0-0.103,0
			c-6.588,0-11.946-5.359-11.946-11.947s5.358-11.946,11.946-11.946s11.947,5.358,11.947,11.946H718.205z M713.938,519.842
			c0-4.232-3.448-7.68-7.681-7.68s-7.68,3.447-7.68,7.68c0,4.233,3.447,7.681,7.68,7.681h0.205
			C710.593,527.42,713.938,524.007,713.938,519.842z"/>
		<path fill="#FFFFFF" d="M745.549,507.896v11.946c0,6.588-5.359,11.947-11.947,11.947s-11.946-5.359-11.946-11.947v-11.946h4.267
			v11.946c0,4.233,3.447,7.681,7.68,7.681s7.681-3.447,7.681-7.681v-11.946H745.549z"/>
		<path fill="#FFFFFF" d="M753.231,514.347v2.219h15.36v4.267h-15.36v4.506c0,1.194,0.989,2.185,2.185,2.185h17.442v4.267h-17.442
			c-3.55,0-6.417-2.901-6.417-6.451v-10.991c0-3.55,2.867-6.451,6.417-6.451h17.442v4.267h-17.442
			C754.221,512.162,753.231,513.152,753.231,514.347z"/>
		<path fill="#FFFFFF" d="M800.167,507.896v11.946c0,6.588-5.359,11.947-11.947,11.947s-11.946-5.359-11.946-11.947v-11.946h4.267
			v11.946c0,4.233,3.447,7.681,7.68,7.681s7.681-3.447,7.681-7.681v-11.946H800.167z"/>
		<path fill="#FFFFFF" d="M822.868,527.557l2.185,4.267h-4.778l-2.185-4.267l-2.287-4.472l-0.103-0.205
			c-0.751-1.229-2.082-2.048-3.618-2.048h-4.267v10.991h-4.267V507.93h15.087c1.775,0,3.379,0.717,4.54,1.877
			c1.16,1.195,1.877,2.799,1.877,4.574c0,2.594-1.536,4.847-3.755,5.871c-0.58,0.272-1.194,0.443-1.843,0.512L822.868,527.557z
			 M818.636,516.565c0.308,0,0.614-0.068,0.888-0.205c0.785-0.341,1.297-1.126,1.297-1.979c0-0.785-0.409-1.331-0.648-1.57
			c-0.273-0.273-0.785-0.614-1.536-0.614h-10.82v4.403L818.636,516.565z"/>
	</g>
</g>
</svg>
