<?xml version="1.0" encoding="utf-8"?>
<!-- Generator: Adobe Illustrator 16.0.0, SVG Export Plug-In . SVG Version: 6.00 Build 0)  -->
<!DOCTYPE svg PUBLIC "-//W3C//DTD SVG 1.1//EN" "http://www.w3.org/Graphics/SVG/1.1/DTD/svg11.dtd">
<svg version="1.1" id="Calque_1" xmlns="http://www.w3.org/2000/svg" xmlns:xlink="http://www.w3.org/1999/xlink" x="0px" y="0px"
	 width="850.39px" height="595.28px" viewBox="0 0 850.39 595.28" enable-background="new 0 0 850.39 595.28" xml:space="preserve">
<g>
	<linearGradient id="SVGID_1_" gradientUnits="userSpaceOnUse" x1="326.8438" y1="297.8403" x2="517.6934" y2="297.8403">
		<stop  offset="0.0269" style="stop-color:#000000"/>
		<stop  offset="1" style="stop-color:#08858C"/>
	</linearGradient>
	<path fill-rule="evenodd" clip-rule="evenodd" fill="url(#SVGID_1_)" d="M516.424,356.877
		c-10.447-17.133-20.748-34.354-31.034-51.584c-11.331-18.979-22.571-38.014-33.894-56.999c-5.867-9.84-12.02-19.517-17.633-29.498
		c-1.037-1.845-2.152-2.981-3.54-3.599h-21.569c-0.949,0.493-1.7,1.317-2.402,2.584c-13.277,23.938-26.703,47.792-40.072,71.678
		c-12.72,22.724-25.371,45.488-38.194,68.154c-0.975,1.723-1.389,3.216-1.195,4.736l8.699,16.734
		c0.792,0.771,1.736,1.179,2.877,1.363h83.175c0-0.01,0-0.02,0-0.029c27.237,0,54.475-0.045,81.711,0.065
		c2.164,0.009,3.65-0.471,4.813-1.792l9.527-18.203C517.644,359.34,517.219,358.182,516.424,356.877z M338.467,348.418
		c7.373-13.062,14.735-26.126,21.9-39.307c9.069-16.684,18.616-33.108,27.912-49.669c6.987-12.447,13.957-24.904,20.801-37.429
		c1.175-2.151,2.471-3.006,4.938-2.861c3.93,0.231,7.884,0.062,12.419,0.062c-6.024,10.54-11.745,20.563-17.479,30.58
		c-17.475,30.522-34.962,61.038-52.424,91.567c-2.18,3.812-1.208,5.288,3.474,5.286c33.628-0.013,67.256-0.011,100.883-0.144
		c2.84-0.012,4.59,0.616,5.818,3.315c1.433,3.146,3.34,6.077,5.229,9.436c-46.389,0-92.422,0-139.159,0
		C334.781,355.426,336.521,351.864,338.467,348.418z M381.003,341.945c13.271-23.095,26.361-45.875,39.803-69.268
		c13.961,23.448,27.504,46.196,41.242,69.268C434.96,341.945,408.315,341.945,381.003,341.945z M498.844,376.001
		c-52.226-0.009-104.451-0.064-156.676-0.026c-2.335,0.002-3.616-0.703-4.595-2.777c-1.411-2.989-3.117-5.841-4.98-9.271
		c1.98,0,3.311,0,4.642,0c45.104,0.006,90.207,0.011,135.311,0.014c6.16,0,6.645-0.785,3.654-6.072
		c-16.443-29.076-33.941-57.531-50.876-86.317c-1.352-2.299-1.717-3.998-0.182-6.353c1.84-2.822,2.915-6.126,5.386-9.153
		c23.856,39.976,47.53,79.643,71.194,119.294C500.817,376.458,499.746,376.001,498.844,376.001z M512.015,363.442
		c-2.132,3.214-3.929,6.651-5.886,10.022c-1.555-0.548-1.855-2.022-2.512-3.126c-11.35-19.06-22.65-38.147-33.966-57.228
		c-11.981-20.205-23.967-40.408-35.952-60.611c-2.706-4.563-3.93-4.618-6.553-0.054c-16.312,28.39-32.636,56.772-48.799,85.247
		c-1.614,2.843-3.226,4.571-6.345,4.504v0.087h-8.667v-0.033h-2.004v-0.232h0.139c22.992-40.403,45.753-80.404,68.719-120.762
		c13.777,23,27.229,45.442,40.664,67.894c13.689,22.877,27.328,45.786,41.098,68.615
		C513.221,359.871,513.389,361.371,512.015,363.442z"/>
	<g>
		<path d="M334.98,427h0.096l-0.096,0.096V427z M368.583,393.349l-13.009,16.85l-0.72,0.912v15.842h-6v-15.746l-0.816-1.008
			l-13.009-16.85h7.585l9.217,11.953l9.217-11.953H368.583z M368.536,427h0.048v0.096L368.536,427z"/>
		<path d="M396.567,427h-6.721l-3.072-6.001l-7.345-14.401l-7.345,14.401L369.013,427h-6.721l3.072-6.001l14.065-27.603
			l14.065,27.603L396.567,427z"/>
		<path d="M433.047,416.295c0,5.904-4.801,10.705-10.705,10.705h-22.898v-33.604h21.169c4.993,0,9.073,4.081,9.073,9.073
			c0,1.824-0.528,3.504-1.44,4.896C431.127,409.286,433.047,412.551,433.047,416.295z M405.444,405.542h15.217
			c1.68,0,3.072-1.393,3.072-3.072c0-1.681-1.392-3.072-3.072-3.072h-15.217V405.542z M422.342,420.951
			c2.592,0,4.704-2.112,4.704-4.704c0-2.593-2.112-4.705-4.704-4.705h-16.897v9.457h16.897V420.951z"/>
		<path d="M469.047,410.198c0,9.265-7.537,16.802-16.802,16.802s-16.802-7.537-16.802-16.802s7.537-16.802,16.802-16.802
			S469.047,400.934,469.047,410.198z M463.046,410.198c0-5.952-4.849-10.801-10.801-10.801c-5.953,0-10.801,4.849-10.801,10.801
			s4.848,10.801,10.801,10.801C458.197,420.999,463.046,416.15,463.046,410.198z"/>
		<path d="M506.246,393.445v33.603l-6-4.608l-21.603-16.657v21.266h-6v-33.507l6,4.608l21.603,16.657v-21.41L506.246,393.445z"/>
	</g>
	<g>
		<path d="M341.022,438.637c0.68,0.681,1.101,1.621,1.101,2.661c0,1.521-0.9,2.841-2.201,3.44c-0.34,0.16-0.7,0.26-1.08,0.3
			c-0.04,0-0.08,0-0.12,0v0.021h-6.702v6.441h-2.5v-14.003h8.822c1.04,0,1.98,0.42,2.66,1.1L341.022,438.637z M338.882,442.458
			c0.46-0.2,0.76-0.66,0.76-1.16c0-0.46-0.24-0.78-0.38-0.921c-0.16-0.159-0.46-0.359-0.9-0.359h-6.342v2.58h6.342
			c0.18,0,0.36-0.04,0.52-0.12V442.458z"/>
		<path d="M355.403,449.039l1.28,2.501h-2.801l-1.28-2.501l-1.34-2.62l-0.06-0.12c-0.44-0.721-1.22-1.2-2.12-1.2h-2.5v6.441h-2.501
			v-14.003h8.842c1.04,0,1.98,0.42,2.661,1.1c0.68,0.681,1.1,1.621,1.1,2.661c0,1.521-0.9,2.841-2.201,3.44
			c-0.34,0.16-0.7,0.26-1.08,0.3L355.403,449.039z M352.922,442.598c0.18,0,0.36-0.04,0.52-0.12c0.46-0.2,0.76-0.66,0.76-1.16
			c0-0.46-0.24-0.78-0.38-0.92c-0.16-0.16-0.46-0.36-0.9-0.36h-6.341v2.581L352.922,442.598z"/>
		<path d="M372.223,444.498c0,3.861-3.141,7.002-7.001,7.002s-7.001-3.141-7.001-7.002c0-3.86,3.141-7.001,7.001-7.001
			S372.223,440.638,372.223,444.498z M369.722,444.498c0-2.48-2.021-4.501-4.501-4.501s-4.501,2.021-4.501,4.501
			s2.021,4.501,4.501,4.501S369.722,446.979,369.722,444.498z"/>
		<path d="M387.743,437.517v14.003l-2.501-1.92l-9.001-6.941v8.861h-2.501v-13.963l2.501,1.921l9.001,6.941v-8.922L387.743,437.517z
			"/>
		<path d="M403.263,444.498c0,3.861-3.141,7.002-7.001,7.002s-7.001-3.141-7.001-7.002c0-3.86,3.141-7.001,7.001-7.001
			S403.263,440.638,403.263,444.498z M400.762,444.498c0-2.48-2.021-4.501-4.501-4.501s-4.501,2.021-4.501,4.501
			s2.021,4.501,4.501,4.501S400.762,446.979,400.762,444.498z"/>
		<path d="M415.522,441.378v-0.08c0-0.7-0.58-1.28-1.28-1.28h-5.681c-0.7,0-1.28,0.58-1.28,1.28v0.08c0,0.7,0.58,1.28,1.28,1.28
			h5.041c1.3,0,2.46,0.56,3.261,1.44c0.06,0.06,0.1,0.119,0.16,0.18c0.62,0.76,1,1.74,1,2.801c0,2.44-1.98,4.421-4.421,4.421h-4.381
			c-2.441,0-4.421-1.98-4.421-4.421h2.5c0,1.06,0.86,1.92,1.921,1.92h4.381c1.06,0,1.94-0.86,1.94-1.92
			c0-1.061-0.88-1.921-1.94-1.921h-5.041c-1.021,0-1.94-0.399-2.621-1.06c-0.18-0.181-0.34-0.381-0.48-0.601
			c-0.42-0.601-0.66-1.34-0.66-2.141v-0.08c0-2.08,1.681-3.78,3.761-3.78h5.681c2.08,0,3.781,1.7,3.781,3.78v0.08L415.522,441.378z"
			/>
		<path d="M433.343,437.517v2.501h-5.741v11.502h-2.501v-11.502h-5.741v-2.501H433.343z"/>
		<path d="M435.359,451.5v-14.003h2.501V451.5H435.359z"/>
		<path d="M453.843,444.498c0,1.721-0.62,3.281-1.641,4.501h1.641v2.501h-6.922c-0.02,0-0.04,0-0.06,0
			c-3.86,0-7.002-3.141-7.002-7.002c0-3.86,3.142-7.001,7.002-7.001s7.002,3.141,7.002,7.001H453.843z M451.342,444.498
			c0-2.48-2.02-4.501-4.5-4.501c-2.481,0-4.501,2.021-4.501,4.501s2.02,4.501,4.501,4.501h0.119
			C449.382,448.939,451.342,446.938,451.342,444.498z"/>
		<path d="M469.862,437.497v7.001c0,3.861-3.141,7.002-7.001,7.002c-3.861,0-7.002-3.141-7.002-7.002v-7.001h2.501v7.001
			c0,2.48,2.021,4.501,4.501,4.501s4.501-2.021,4.501-4.501v-7.001H469.862z"/>
		<path d="M474.359,441.277v1.301h9.002v2.5h-9.002v2.641c0,0.7,0.58,1.28,1.28,1.28h10.222v2.501H475.64
			c-2.081,0-3.761-1.7-3.761-3.781v-6.441c0-2.08,1.68-3.78,3.761-3.78h10.222v2.5H475.64
			C474.939,439.997,474.359,440.577,474.359,441.277z"/>
		<path d="M501.861,437.497v7.001c0,3.861-3.141,7.002-7.001,7.002c-3.861,0-7.002-3.141-7.002-7.002v-7.001h2.501v7.001
			c0,2.48,2.021,4.501,4.501,4.501s4.501-2.021,4.501-4.501v-7.001H501.861z"/>
		<path d="M515.161,449.02l1.28,2.5h-2.801l-1.28-2.5l-1.34-2.621l-0.061-0.12c-0.439-0.72-1.22-1.2-2.12-1.2h-2.501v6.441h-2.5
			v-14.003h8.842c1.04,0,1.98,0.42,2.66,1.101c0.681,0.7,1.101,1.641,1.101,2.681c0,1.521-0.9,2.841-2.2,3.44
			c-0.341,0.16-0.7,0.26-1.081,0.3L515.161,449.02z M512.681,442.578c0.18,0,0.36-0.04,0.52-0.12c0.461-0.2,0.761-0.66,0.761-1.16
			c0-0.46-0.24-0.78-0.38-0.921c-0.16-0.159-0.461-0.359-0.9-0.359h-6.342v2.58L512.681,442.578z"/>
	</g>
</g>
</svg>
